<svg xmlns="http://www.w3.org/2000/svg" width="36" height="36" id="mail">
  <g fill="#fff">
    <circle cx="37.045" cy="28.409" r="12.5" fill="#50b748" fill-rule="evenodd" transform="translate(-35.345 -22.909)scale(1.44)"></circle>
    <path fill="#10a711" d="M19.973 35.883a18 18 0 0 0 1.603-.242 18 18 0 0 0 1.744-.446 18 18 0 0 0 1.69-.615 18 18 0 0 0 1.619-.783 18 18 0 0 0 1.535-.942 18 18 0 0 0 1.432-1.087 18 18 0 0 0 1.316-1.227 18 18 0 0 0 1.188-1.352 18 18 0 0 0 1.046-1.464 18 18 0 0 0 .895-1.56 18 18 0 0 0 .736-1.644 18 18 0 0 0 .567-1.707 18 18 0 0 0 .394-1.755 18 18 0 0 0 0-.008l-8.543-8.543a.5.5 0 0 0-.496-.496L17.6 12l-9.099.021a.5.5 0 0 0-.357.153.5.5 0 0 0-.063.078.5.5 0 0 0-.025.043.5.5 0 0 0-.047.143.5.5 0 0 0-.006.048.5.5 0 0 0-.002.035v11.39a.5.5 0 0 0 .5.5l11.473 11.472z" color="#000" font-family="sans-serif" font-weight="400" style="line-height:normal;text-indent:0;text-align:start;text-decoration-line:none;text-decoration-style:solid;text-decoration-color:#000;text-transform:none;block-progression:tb;isolation:auto;mix-blend-mode:normal"></path>
    <path d="m16.6 10-9.1.021a.5.5 0 0 0-.357.153.5.5 0 0 0-.063.078.5.5 0 0 0-.025.043.5.5 0 0 0-.047.143.5.5 0 0 0-.006.048.5.5 0 0 0-.002.035v11.39a.5.5 0 0 0 .5.5h10.422l-.041.071a.502.499 0 0 0 .433.748H27.5a.502.499 0 0 0 .434-.748l-1.743-3v-8.896a.5.5 0 0 0-.492-.574L16.6 10Zm-7.356 1.021h14.697L16.6 15.615l-7.356-4.594zm15.947.397v6.344l-1.85-3.186a.502.499 0 0 0-.001-.002.5.5 0 0 0-.026-.039.502.499 0 0 0-.002-.002.5.5 0 0 0-.029-.037.502.499 0 0 0-.002-.002.5.5 0 0 0-.033-.035.502.499 0 0 0-.002-.002.5.5 0 0 0-.037-.03.502.499 0 0 0-.002-.001.5.5 0 0 0-.041-.028.5.5 0 0 0-.041-.021.502.499 0 0 0-.004-.002.5.5 0 0 0-.045-.02.5.5 0 0 0-.047-.013.502.499 0 0 0-.002 0 .5.5 0 0 0-.047-.01.502.499 0 0 0-.002 0 .502.499 0 0 0-.004 0 .5.5 0 0 0-.095-.004.502.499 0 0 0-.098.015.5.5 0 0 0-.049.014.5.5 0 0 0-.014.006.502.499 0 0 0-.074.037.5.5 0 0 0-.002.002.502.499 0 0 0-.039.027.5.5 0 0 0-.002.002.502.499 0 0 0-.037.032.502.499 0 0 0-.035.035.5.5 0 0 0 0 .002.502.499 0 0 0-.031.037.5.5 0 0 0 0 .002.502.499 0 0 0-.026.037l-3.969 6.834H8v-9.988l8.336 5.207a.5.5 0 0 0 .529 0l8.326-5.211zm-2.283 4.404 2.352 4.051a.5.5 0 0 0 .002.002l1.369 2.36-7.445-.003.029-.052a.5.5 0 0 0 .01-.016l.002-.002 3.681-6.34zm.02 1.932a.5.5 0 0 0-.492.506v1.627a.5.5 0 1 0 1 0V18.26a.5.5 0 0 0-.508-.506zm-.045 2.861a.5.5 0 0 0 .05 1h.003a.5.5 0 1 0 0-1h-.002a.5.5 0 0 0-.051 0z" color="#000" font-family="sans-serif" font-weight="400" overflow="visible" style="line-height:normal;text-indent:0;text-align:start;text-decoration-line:none;text-decoration-style:solid;text-decoration-color:#000;text-transform:none;block-progression:tb;isolation:auto;mix-blend-mode:normal" transform="translate(1 2)"></path>
  </g>
</svg>
